# xmcd CD database file
#
# Track frame offsets:
#	150
#	10372
#	20532
#	32107
#	41755
#	53315
#	64860
#	74242
#	83622
#	95497
#	106002
#	117227
#	127285
#	139202
#	149322
#	160635
#	170512
#	181157
#	191825
#	203175
#	213867
#	218567
#	223285
#	227992
#	232745
#	237430
#	242120
#	246802
#	251515
#	256227
#	260907
#	263347
#	265800
#	268260
#	270720
#	273130
#	275582
#	278052
#	280510
#	282982
#	285400
#	287097
#	288825
#	290550
#	292265
#	293925
#	295622
#	297340
#	299050
#	300800
#	302510
#	303837
#	305180
#	306535
#	307867
#	309165
#	310502
#	311812
#	313152
#	314482
#	315807
#	316755
#	317752
#	318710
#	319687
#	320635
#	321587
#	322532
#	323497
#	324455
#
# Disc length: 4338 seconds
#
# Revision: 0
# Processed by: cddbd v1.4PL0 Copyright (c) Steve Scherf et al.
# Submitted via: CDex 1.50
#
DISCID=3810f046
DTITLE=Curt Ramm (Contemporary Jazz 9) (OM-CJZ9) - Tones
DYEAR=1997
DGENRE=Jazz
TTITLE0=Tones
TTITLE1=Tones
TTITLE2=Tones
TTITLE3=Tones
TTITLE4=Tones
TTITLE5=Tones
TTITLE6=Tones
TTITLE7=Tones
TTITLE8=Tones
TTITLE9=Tones
TTITLE10=Tones
TTITLE11=Tones
TTITLE12=Tones
TTITLE13=Tones
TTITLE14=Tones
TTITLE15=Tones
TTITLE16=Tones
TTITLE17=Tones
TTITLE18=Tones
TTITLE19=Tones
TTITLE20=Tones
TTITLE21=Tones
TTITLE22=Tones
TTITLE23=Tones
TTITLE24=Tones
TTITLE25=Tones
TTITLE26=Tones
TTITLE27=Tones
TTITLE28=Tones
TTITLE29=Tones
TTITLE30=Tones
TTITLE31=Tones
TTITLE32=Tones
TTITLE33=Tones
TTITLE34=Tones
TTITLE35=Tones
TTITLE36=Tones
TTITLE37=Tones
TTITLE38=Tones
TTITLE39=Tones
TTITLE40=Tones
TTITLE41=Tones
TTITLE42=Tones
TTITLE43=Tones
TTITLE44=Tones
TTITLE45=Tones
TTITLE46=Tones
TTITLE47=Tones
TTITLE48=Tones
TTITLE49=Tones
TTITLE50=Tones
TTITLE51=Tones
TTITLE52=Tones
TTITLE53=Tones
TTITLE54=Tones
TTITLE55=Tones
TTITLE56=Tones
TTITLE57=Tones
TTITLE58=Tones
TTITLE59=Tones
TTITLE60=Tones
TTITLE61=Tones
TTITLE62=Tones
TTITLE63=Tones
TTITLE64=Tones
TTITLE65=Tones
TTITLE66=Tones
TTITLE67=Tones
TTITLE68=Tones
TTITLE69=Tones
EXTD=YEAR: 1997
EXTT0=
EXTT1=
EXTT2=
EXTT3=
EXTT4=
EXTT5=
EXTT6=
EXTT7=
EXTT8=
EXTT9=
EXTT10=
EXTT11=
EXTT12=
EXTT13=
EXTT14=
EXTT15=
EXTT16=
EXTT17=
EXTT18=
EXTT19=
EXTT20=
EXTT21=
EXTT22=
EXTT23=
EXTT24=
EXTT25=
EXTT26=
EXTT27=
EXTT28=
EXTT29=
EXTT30=
EXTT31=
EXTT32=
EXTT33=
EXTT34=
EXTT35=
EXTT36=
EXTT37=
EXTT38=
EXTT39=
EXTT40=
EXTT41=
EXTT42=
EXTT43=
EXTT44=
EXTT45=
EXTT46=
EXTT47=
EXTT48=
EXTT49=
EXTT50=
EXTT51=
EXTT52=
EXTT53=
EXTT54=
EXTT55=
EXTT56=
EXTT57=
EXTT58=
EXTT59=
EXTT60=
EXTT61=
EXTT62=
EXTT63=
EXTT64=
EXTT65=
EXTT66=
EXTT67=
EXTT68=
EXTT69=
PLAYORDER=
